HIERARCHY
ROOT hips
{
  OFFSET 0 9.313263304106702 1.2146308026317778
  CHANNELS 6 Xposition Yposition Zposition Yrotation Xrotation Zrotation
  JOINT spine
  {
    OFFSET -6.402521e-31 0.5173342420023708 0
    CHANNELS 3 Yrotation Xrotation Zrotation
    JOINT chest
    {
      OFFSET 0 1.130544299341115 0
      CHANNELS 3 Yrotation Xrotation Zrotation
      JOINT upperChest
      {
        OFFSET 0 1.0863555061129995 0
        CHANNELS 3 Yrotation Xrotation Zrotation
        JOINT neck
        {
          OFFSET 0 1.3773706506454462 0
          CHANNELS 3 Yrotation Xrotation Zrotation
          JOINT head
          {
            OFFSET 0 0.7374408940073979 0
            CHANNELS 3 Yrotation Xrotation Zrotation
            JOINT leftEye
            {
              OFFSET 0.25066580148932727 0.6408406698778757 0.15963719178883284
              CHANNELS 3 Yrotation Xrotation Zrotation
              End Site
              {
                OFFSET 0.25066580148932727 0.6408406698778757 0.15963719178883284
              }
            }
            JOINT rightEye
            {
              OFFSET -0.25066576739704244 0.6408406384191823 0.15963727561643756
              CHANNELS 3 Yrotation Xrotation Zrotation
              End Site
              {
                OFFSET -0.25066576739704244 0.6408406384191823 0.15963727561643756
              }
            }
          }
        }
        JOINT leftShoulder
        {
          OFFSET 0.3761817444281191 1.0539491987447769 0
          CHANNELS 3 Yrotation Xrotation Zrotation
          JOINT leftUpperArm
          {
            OFFSET 0.8702844380000002 0 0
            CHANNELS 3 Yrotation Xrotation Zrotation
            JOINT leftLowerArm
            {
              OFFSET 2.198527310000323 0 0
              CHANNELS 3 Yrotation Xrotation Zrotation
              JOINT leftHand
              {
                OFFSET 2.146852313968281 0 0
                CHANNELS 3 Yrotation Xrotation Zrotation
                JOINT leftIndexProximal
                {
                  OFFSET 0.6585177834681599 0.07380250427007962 0.18382213159631788
                  CHANNELS 3 Yrotation Xrotation Zrotation
                  JOINT leftIndexIntermediate
                  {
                    OFFSET 0.3323021288626682 -0.009606893929485771 -0.012820872253340998
                    CHANNELS 3 Yrotation Xrotation Zrotation
                    JOINT leftIndexDistal
                    {
                      OFFSET 0.2045908926985518 -0.0071133989147997845 -0.006828784783599051
                      CHANNELS 3 Yrotation Xrotation Zrotation
                      End Site
                      {
                        OFFSET 0.2045908926985518 -0.0071133989147997845 -0.006828784783599051
                      }
                    }
                  }
                }
                JOINT leftLittleProximal
                {
                  OFFSET 0.6110054258835662 0.07380246363125398 -0.29175655876064077
                  CHANNELS 3 Yrotation Xrotation Zrotation
                  JOINT leftLittleIntermediate
                  {
                    OFFSET 0.3144281999999998 -2.5124724523095665e-9 1.8658118799974588e-7
                    CHANNELS 3 Yrotation Xrotation Zrotation
                    JOINT leftLittleDistal
                    {
                      OFFSET 0.18116185580251631 0.002815456192251098 0.0034826415518049436
                      CHANNELS 3 Yrotation Xrotation Zrotation
                      End Site
                      {
                        OFFSET 0.18116185580251631 0.002815456192251098 0.0034826415518049436
                      }
                    }
                  }
                }
                JOINT leftMiddleProximal
                {
                  OFFSET 0.6637478005691111 0.07380246480054087 0.02046981859247815
                  CHANNELS 3 Yrotation Xrotation Zrotation
                  JOINT leftMiddleIntermediate
                  {
                    OFFSET 0.3705733999999994 -2.9611069152224445e-9 9.35054791928458e-8
                    CHANNELS 3 Yrotation Xrotation Zrotation
                    JOINT leftMiddleDistal
                    {
                      OFFSET 0.22861063500000056 -1.82673876025774e-9 -1.6740782024515788e-7
                      CHANNELS 3 Yrotation Xrotation Zrotation
                      End Site
                      {
                        OFFSET 0.22861063500000056 -1.82673876025774e-9 -1.6740782024515788e-7
                      }
                    }
                  }
                }
                JOINT leftRingProximal
                {
                  OFFSET 0.6561845547265777 0.07380246406440083 -0.13588087571513918
                  CHANNELS 3 Yrotation Xrotation Zrotation
                  JOINT leftRingIntermediate
                  {
                    OFFSET 0.3437531000000005 -2.746796123886952e-9 1.4935781944558357e-7
                    CHANNELS 3 Yrotation Xrotation Zrotation
                    JOINT leftRingDistal
                    {
                      OFFSET 0.1983118991198174 -0.002467117924596085 -0.004538141969590015
                      CHANNELS 3 Yrotation Xrotation Zrotation
                      End Site
                      {
                        OFFSET 0.1983118991198174 -0.002467117924596085 -0.004538141969590015
                      }
                    }
                  }
                }
                JOINT leftThumbProximal
                {
                  OFFSET 0.09767004258864787 -0.14930060425447422 -0.07008212897521154
                  CHANNELS 3 Yrotation Xrotation Zrotation
                  JOINT leftThumbIntermediate
                  {
                    OFFSET 0.36682123028154767 -0.015768465060082004 0.28693641268151077
                    CHANNELS 3 Yrotation Xrotation Zrotation
                    JOINT leftThumbDistal
                    {
                      OFFSET 0.21091084272403915 -0.016756648201192714 0.1933767059105508
                      CHANNELS 3 Yrotation Xrotation Zrotation
                      End Site
                      {
                        OFFSET 0.21091084272403915 -0.016756648201192714 0.1933767059105508
                      }
                    }
                  }
                }
              }
            }
          }
        }
        JOINT rightShoulder
        {
          OFFSET -0.37618174442811925 1.0539491987447769 0
          CHANNELS 3 Yrotation Xrotation Zrotation
          JOINT rightUpperArm
          {
            OFFSET -0.870284438 0 0
            CHANNELS 3 Yrotation Xrotation Zrotation
            JOINT rightLowerArm
            {
              OFFSET -2.1985273100003235 0 0
              CHANNELS 3 Yrotation Xrotation Zrotation
              JOINT rightHand
              {
                OFFSET -2.1468523139682802 0 0
                CHANNELS 3 Yrotation Xrotation Zrotation
                JOINT rightIndexProximal
                {
                  OFFSET -0.6585177834681599 0.07380250427007962 0.18382213159631788
                  CHANNELS 3 Yrotation Xrotation Zrotation
                  JOINT rightIndexIntermediate
                  {
                    OFFSET -0.3323021288626682 -0.009606893929485771 -0.012820872253340998
                    CHANNELS 3 Yrotation Xrotation Zrotation
                    JOINT rightIndexDistal
                    {
                      OFFSET -0.2045908926985518 -0.0071133989147997845 -0.006828784783599051
                      CHANNELS 3 Yrotation Xrotation Zrotation
                      End Site
                      {
                        OFFSET -0.2045908926985518 -0.0071133989147997845 -0.006828784783599051
                      }
                    }
                  }
                }
                JOINT rightLittleProximal
                {
                  OFFSET -0.6110054258835662 0.07380246363125398 -0.29175655876064077
                  CHANNELS 3 Yrotation Xrotation Zrotation
                  JOINT rightLittleIntermediate
                  {
                    OFFSET -0.3144281999999998 -2.5124724523095665e-9 1.8658118799974588e-7
                    CHANNELS 3 Yrotation Xrotation Zrotation
                    JOINT rightLittleDistal
                    {
                      OFFSET -0.18116185580251631 0.002815456192251098 0.0034826415518049436
                      CHANNELS 3 Yrotation Xrotation Zrotation
                      End Site
                      {
                        OFFSET -0.18116185580251631 0.002815456192251098 0.0034826415518049436
                      }
                    }
                  }
                }
                JOINT rightMiddleProximal
                {
                  OFFSET -0.6637478005691111 0.07380246480054087 0.02046981859247815
                  CHANNELS 3 Yrotation Xrotation Zrotation
                  JOINT rightMiddleIntermediate
                  {
                    OFFSET -0.3705733999999994 -2.9611069152224445e-9 9.35054791928458e-8
                    CHANNELS 3 Yrotation Xrotation Zrotation
                    JOINT rightMiddleDistal
                    {
                      OFFSET -0.22861063500000056 -1.82673876025774e-9 -1.6740782024515788e-7
                      CHANNELS 3 Yrotation Xrotation Zrotation
                      End Site
                      {
                        OFFSET -0.22861063500000056 -1.82673876025774e-9 -1.6740782024515788e-7
                      }
                    }
                  }
                }
                JOINT rightRingProximal
                {
                  OFFSET -0.6561845547265777 0.07380246406440083 -0.13588087571513918
                  CHANNELS 3 Yrotation Xrotation Zrotation
                  JOINT rightRingIntermediate
                  {
                    OFFSET -0.3437531000000005 -2.746796123886952e-9 1.4935781944558357e-7
                    CHANNELS 3 Yrotation Xrotation Zrotation
                    JOINT rightRingDistal
                    {
                      OFFSET -0.1983118991198174 -0.002467117924596085 -0.004538141969590015
                      CHANNELS 3 Yrotation Xrotation Zrotation
                      End Site
                      {
                        OFFSET -0.1983118991198174 -0.002467117924596085 -0.004538141969590015
                      }
                    }
                  }
                }
                JOINT rightThumbProximal
                {
                  OFFSET -0.09767004258864787 -0.14930060425447422 -0.07008212897521154
                  CHANNELS 3 Yrotation Xrotation Zrotation
                  JOINT rightThumbIntermediate
                  {
                    OFFSET -0.36682123028154767 -0.015768465060082004 0.28693641268151077
                    CHANNELS 3 Yrotation Xrotation Zrotation
                    JOINT rightThumbDistal
                    {
                      OFFSET -0.21091084272403915 -0.016756648201192714 0.1933767059105508
                      CHANNELS 3 Yrotation Xrotation Zrotation
                      End Site
                      {
                        OFFSET -0.21091084272403915 -0.016756648201192714 0.1933767059105508
                      }
                    }
                  }
                }
              }
            }
          }
        }
      }
    }
  }
  JOINT leftUpperLeg
  {
    OFFSET 0.7715603 -0.3993844658041501 0
    CHANNELS 3 Yrotation Xrotation Zrotation
    JOINT leftLowerLeg
    {
      OFFSET 0 -3.529830000249343 0
      CHANNELS 3 Yrotation Xrotation Zrotation
      JOINT leftFoot
      {
        OFFSET 0 -4.154939295409685 0.004208579085223096
        CHANNELS 3 Yrotation Xrotation Zrotation
        JOINT leftToes
        {
          OFFSET 0 -0.6353414391261847 1.10414981190622
          CHANNELS 3 Yrotation Xrotation Zrotation
          End Site
          {
            OFFSET 0 -0.6015820691747853 1.10414981190622
          }
        }
      }
    }
  }
  JOINT rightUpperLeg
  {
    OFFSET -0.7715603 -0.3993844658041501 0
    CHANNELS 3 Yrotation Xrotation Zrotation
    JOINT rightLowerLeg
    {
      OFFSET 0 -3.529830000249343 0
      CHANNELS 3 Yrotation Xrotation Zrotation
      JOINT rightFoot
      {
        OFFSET 0 -4.154939295409685 0.004208579085223096
        CHANNELS 3 Yrotation Xrotation Zrotation
        JOINT rightToes
        {
          OFFSET 0 -0.6353414391261847 1.10414981190622
          CHANNELS 3 Yrotation Xrotation Zrotation
          End Site
          {
            OFFSET 0 -0.6015820691747853 1.10414981190622
          }
        }
      }
    }
  }
}
MOTION
Frames: 4
Frame Time: 0.03333333333333333
-4.771019762212579 1.7999928647821601 5.29854555940668 48.29357809560196 8.30083031787045 0.43085368151323766 12.785056671096404 32.38164728745497 -3.484664237403442 4.126602030201993 14.912424162989563 -3.57045270162219 0 0 0 -1.1696864585871924 -4.391999806697935 2.4610075061958203 -6.188553872525479 -5.102463692633678 7.064379690225175 0 0 0 0 0 0 0.6479687650389317 0.7792422051840165 -13.885360238930625 -15.459493070584578 -17.879471862683964 -55.7442214239934 -20.33209185174638 -0.000028502775782760788 -0.000014955295836595494 -19.181818906350806 -26.693754282730925 56.797727049085125 -6.113185295111805 1.1790668218690168 7.416910296825374 0.01199877623398192 0.0000014572584017329698 1.7794992234079062e-10 -1.5195043044341963 0.1981449431733966 14.920132069949915 16.13047809738701 -1.6257360349066834 6.423664742539004 -0.019844339622899693 0.00015326290879189188 -0.04146983970186976 -1.284937753788169 0.09566124604022688 12.51537990851659 0.2633172975019518 0.358767128628139 10.781082448358484 0.32011753347434063 0.008541383374942167 -3.101772992172987 -1.1471241838651158 0.11339410089256591 11.289371117256119 4.9688595404363545 -0.6622273041848779 12.766524378781368 0.2995668661665855 0.007683644341704253 -2.924460072508255 -1.202796974029422 0.12436560946761192 11.819806413792598 72.31818335279694 -56.15142875159153 -81.08892309676142 -1.6096415689772972 15.197199041569135 20.770523828707336 -2.424435603336787 2.5660842999219318 12.21778099264387 10.996730196583632 0.7761983818132162 6.712386056311507 56.679424591564974 -3.5478679928525807 51.90326411530331 33.123972397605804 0.0000015596489553713893 3.3582756803993393e-7 -17.81445819241635 10.355156432158113 -89.82540490188204 4.5469037394848595 2.1053201039556164 -5.9759250887227875 -0.007934308541936646 0.00006624579225454062 0.45712422543419523 0.8788724473523267 0.08551279286582562 -10.978708032042878 -4.960595751977143 -0.7145446214072857 -7.394022785095953 0.038677460300777476 -0.0015967103395900452 0.7157459189421455 0.3690447331746393 0.02861575239818556 -5.24050448360693 1.7921465583791523 0.6738014195121126 -9.495837610260352 -0.4339714428553267 0.02577503037835501 6.533400856676209 0.9024035534525229 0.09610212736435476 -11.609150390987324 -1.1480047432910763 0.1781445739268611 -10.379451647522856 -0.5392716279749877 0.02920125443105699 6.320956065078255 0.9193711071679443 0.08988461264480134 -11.515248622306759 -63.153371666441764 -61.20634906382258 85.25450333257808 7.000572649836712 6.0953796077808295 -31.169677408740373 -12.046365698002148 4.762148566647733 -12.888832237830654 -69.36234962760086 -73.16290333433545 109.51808080170075 -1.8461868290365504 3.6476992880498322 4.535744652232117 29.981570218302195 7.1998339757903285 2.750754564423323 -0.00001909195341380991 -7.941137648434052 -0.000007020350821463958 26.750928466514196 -12.80296369376712 -84.29164923463098 172.2606285989745 44.78707716075394 175.71898922775335 -6.001913788231445 -8.209106740603984 6.871249103004823 -0.04489162908845853 -8.255071117203777 1.1087096560096963
-4.81999310580167 1.5681550719521242 5.2352181168906995 47.87198187538215 7.331023784371039 0.2032506726249684 15.414791429513034 33.15281042543969 -2.256126444614848 4.947342181016018 15.395154774643565 -3.010755069225548 0 0 0 -1.1048535059070368 -3.7069758982349867 2.079328177307554 -6.865173460867917 -7.324508358523558 6.079419959633726 0 0 0 0 0 0 1.4034008281262877 0.7198991621824326 -11.789716369707087 -15.201119742693706 -18.477385083209793 -58.829784327892725 -22.48864849146741 -0.000028975197156928224 0.000008693015111397163 -16.45051247710107 -19.092929727104305 60.437591703681335 -5.695740463884257 1.5941248600758258 9.202319484863345 0.01200373629179316 0.000002541156120296554 1.2510825067283402e-7 -1.5045709922248638 0.19418502441095403 14.769456378379042 12.014898904120612 -2.2653009253755894 13.091963358984037 -0.02409895846488584 -0.0000016252290413484225 0.00010007034581729931 -1.0772917443585608 0.06086607496790451 10.462336323885543 -0.16507634889021158 0.49514157030358025 13.04999038109229 0.5203348945778129 0.022780070531856583 -5.06058703071399 -1.2246885528116698 0.12940683504726166 12.061985220952979 3.7663452004178284 -0.5272915370042695 15.284114116427645 0.4946702909392902 0.020931582084563305 -4.832685979795323 -1.2292362007571347 0.12996436400663486 12.083598698755297 73.28083085304527 -59.32513846796854 -87.06929229446041 -3.2302919208185528 12.76808715902773 25.328211408198722 0.5828321620765262 2.9616541750021446 11.78983191157683 10.950479768977193 0.7795984218361898 6.687822166753944 53.26467115979745 1.1018288636355784 51.77490546575106 42.76406180512499 -0.000009397179536542815 0.000014431575219637514 -25.695666673935918 8.700027798991844 -95.3984256590902 5.534585153327345 2.469840444129579 -6.338257985834264 0.02930178595221296 -0.0000014722583047217509 -0.0000018705746885882718 1.0514482143458197 0.12240532729011902 -13.144557284391574 -5.380089943154848 -0.8662713714919215 -7.9694708324808925 0.027896311295567328 -0.0018071953505229635 0.8480565396260723 0.3209056115785981 0.0234142976705324 -4.646462080945206 2.3088546934070098 0.7879927627166144 -9.85732371365784 -0.5154295050154907 0.03512646781766561 7.539805653026885 0.9610393486839637 0.10858208352036833 -12.344901149045342 -1.0836306335556167 0.19130177447242347 -10.594893069002131 -0.6171714221022665 0.038632883559212426 7.284084509063249 0.9546706719980083 0.097048723558912 -11.957279939382667 -59.79336001721812 -62.80698937566095 83.64818372074704 7.574973078873409 4.6889250631181305 -31.767450968446443 -14.413132638464075 4.962805834896062 -12.430840627462437 -71.65643812615959 -72.90570520088875 111.86936564564259 -2.5229450891661984 3.947693552578449 6.209779003686899 29.973187457501602 5.066954245927479 1.1881186416824763 0.0000019609476564735924 -6.287539238091955 -0.000024209596395567133 28.725231570352825 -8.83969284288963 -87.51642991244066 170.33621500688074 43.536317473867854 174.00686766489085 -2.6505515551441707 -7.671635802011081 7.056734921278646 -0.03843009948857962 -8.311939189011902 0.9682006906471077
-4.835713559930975 1.4335452426563604 5.176571481314972 47.87726665710838 6.25697903708597 0.06348618900138567 16.80417303988479 33.44931371567784 -1.1150866807378708 5.350190913456499 15.850933680963658 -2.6226627022218767 0 0 0 -1.0214441927465143 -3.1166780699917562 1.9039686352636689 -6.722396996731871 -8.614324556279474 5.40387018336543 0 0 0 0 0 0 2.1644027356565823 0.6356246789517606 -9.784634190428438 -14.854740154806064 -18.799754042929358 -62.02916245615149 -24.576435500477064 -0.000024719698450884407 0.000006148647903094248 -12.946236882792416 -16.614135789701603 63.8699769066623 -5.286418737026382 1.8244272760477815 6.872361100307571 0.01199803668594382 -0.0000033566436232923133 -0.000004681087252192594 -1.4149342153983708 0.1712971707205748 13.867061710075419 7.204788097078822 -1.132715835764498 12.581680916530757 -0.02409416099126823 -7.631293644961308e-7 0.00010098374005516295 -0.8332541120251219 0.029653240924976596 8.063014910707135 -1.549746553703824 0.7632342599629591 11.83267944081335 0.7392606662548233 0.04626690605309967 -7.209170256636133 -1.2689149122731158 0.13902668931071582 12.503602564159447 1.821995986040552 0.025665085332476054 13.591601388613173 0.7109776227803265 0.04328642469923883 -6.954836085822962 -1.2169484404246937 0.1273466607272141 11.960981899105853 65.83647815160346 -60.09384156242356 -85.63878562245715 -7.748367759048588 7.521385682009068 29.494984286319546 3.5443485567905437 2.779083751454465 10.913852685559391 10.954547825968312 0.7696374948704486 6.67890342800503 49.32699304883829 5.83406613210481 51.15318401852676 53.23571762593372 0.000018104584393318992 0.000003098079081907547 -30.82214677151633 7.490133606169106 -95.39661242508646 5.534579199241866 2.4698385213527008 -6.338251615754906 0.02929999836389553 3.7810857067010925e-8 3.2623804141841934e-10 1.0514461869702323 0.12240400660599612 -13.144559778610038 -5.380092918538377 -0.8662677425391582 -7.969471678105515 0.027890244834318904 -0.0018050233970565667 0.8480538185206306 0.3209019564171013 0.023410504047080487 -4.646459102557958 2.308856613019707 0.7880014079923924 -9.857322031159788 -0.5154444988112022 0.03512246241789285 7.539800574674641 0.9610366810118601 0.10858104965198705 -12.344899480976363 -1.0836271123495511 0.19131263346651756 -10.594889712110264 -0.6171794791253656 0.03862992203120383 7.284086202830506 0.9546619220202699 0.09703912526173078 -11.957278268882707 -59.79339684206035 -62.80697442960959 83.64821905739586 7.574974777203256 4.688931487923003 -31.767466229374126 -14.413125975111525 4.962777982837624 -12.430832357498176 -71.52044927057703 -72.75733870568483 111.91971001817743 -1.7666440757045219 3.8123688628314896 6.716571097860285 29.974003241248877 2.79857073577308 0.6094877847941197 0.000024416842965659852 -4.7429781889074984 0.000004687189240526648 29.68896570321638 -6.318720138513096 -89.4712826019934 171.15793394841972 43.44887626560986 174.10015914338103 0.9232879259623031 -6.645131431496095 6.941244077653857 -0.04019252569957628 -8.381560813556648 0.9824652562185051
-4.841390523043546 1.367654366926713 5.1299207681746575 48.1077306865409 5.089382976880457 -0.01081361480753732 17.207836715204355 33.43984711557785 -0.3530827599947406 5.414724923886609 16.232012705303916 -2.536329477824806 0 0 0 -1.0312962771391385 -3.03723515555594 2.012102079086784 -6.666354995403718 -9.678630119305852 5.530681675132469 0 0 0 0 0 0 2.8475705894182295 0.542502017307886 -7.986221969745166 -15.836110276688276 -21.3690157267491 -64.37881511591853 -20.72095359064998 -0.000014443422149715487 -0.000015733859796849775 -12.52198146295319 -14.757965805490226 67.00962660109273 -5.549102436629018 2.2050328638458057 4.144477556581581 0.013035650093542246 0.0000011951361173259603 -0.010048837339594488 -1.3121840744194009 0.1468996007408445 12.83664118742967 5.18532627709839 -0.5882608575285861 11.074841730176212 -0.02409838983836392 -0.0000010691243728458725 0.00008955694852888188 -0.5793575743544681 0.00812519789970808 5.577811564837622 -2.5895535490171158 0.8621335670911092 10.002248281982522 0.9144270664292802 0.07107006419962708 -8.935481936054655 -1.2796175020215113 0.14141314054105777 12.610472692774145 0.8154575887427692 0.2594053877567301 11.693238618363372 0.8832410036637731 0.06691623228466674 -8.651443525804584 -1.1828050694851393 0.12022301025733817 11.620595744675839 56.738828626719666 -59.705519500913425 -79.97095508765649 -11.860501322573008 3.5561037329659255 30.85823679546257 5.072992467519384 2.2586788062065093 10.226505853032172 10.966071493187775 0.7598673196246698 6.666802703485727 47.78285219793115 7.5866381474463545 50.691694105585476 56.862366756114966 0.000001926885874890398 -0.000006750986946446041 -32.42725099105903 6.974478402574459 -94.67390339526213 5.534597391179115 2.4698389486364514 -6.33825288977079 0.02931488270467869 0.0000012602652260935998 0.0000055170929459939044 1.051438931099687 0.12240159202189285 -13.14455645298541 -5.380077616565636 -0.8662694502816346 -7.969458520195129 0.02790097203201257 -0.0018038609225381325 0.848047842759647 0.3209102539004954 0.02341153624616476 -4.646456549654583 2.3088744537097443 0.7880011411628928 -9.857317824914583 -0.5154460462136027 0.03511984440055605 7.53980142106669 0.9610437236662048 0.10858433802045153 -12.344904485183239 -1.0836135610412825 0.1913108458679807 -10.594888872887285 -0.6171729694775656 0.03863126272293744 7.284074346459435 0.9546708854120987 0.0970467425344067 -11.957270879334908 -59.7933527628915 -62.80699684868948 83.64821905055194 7.57496798388379 4.688924206477485 -31.76747857706624 -14.413135128505326 4.962793837086129 -12.430843138149562 -69.72695348886589 -72.58831974542764 110.1316855537151 -0.6220923103061724 3.6519139522349295 6.945593307787432 29.959092651020313 0.6122314413360118 0.6202776929651622 0.000006321682778464102 -3.3947393135915878 -0.000008092477865028482 30.0512426724969 -4.8613583848983675 -90.07562398838995 171.7343227265678 43.56713449711604 173.9822925497115 2.5785005875152063 -5.819074965710943 6.9822826216794365 -0.03953607235150911 -8.395954043950399 0.9635964634567824
